<svg xmlns="http://www.w3.org/2000/svg" xmlns:xlink="http://www.w3.org/1999/xlink" version="1.1" viewBox="208.53 329.21 179.11 183.84">
  <defs>
    <style>
      .cls-1 {
        fill: none;
        stroke: #543f2e;
        stroke-miterlimit: 10;
        stroke-width: 8px;
      }

      .cls-2 {
        fill: #543f2e;
        font-family: Roboto-Regular, Roboto;
        font-size: 65px;
      }
    </style>
    <path id="path" d="M440.1,296.6c-68.7-78.7-188.2-86.7-266.8-18-78.7,68.7-86.7,188.2-18,266.8,68.7,78.7,188.2,86.7,266.8,18,78.7-68.7,86.7-188.2,18-266.8Z"/>
  </defs>
  <!-- Generator: Adobe Illustrator 28.6.0, SVG Export Plug-In . SVG Version: 1.2.0 Build 709)  -->
  <g>
    <g id="Layer_1">
      <g>
        <path class="cls-1" d="M222.6,456c3.4-5.6,9-3.9,21.8-10.4,3.7-1.9,7.8-4,12.2-8,1.2-1,5.7-5.2,10.1-13,7.3-12.9,4.5-18.2,10.3-22.8,5.4-4.2,12.5-3.5,16.9-3,3.1.3,17.5,1.9,22,12.8,2.7,6.3,1.2,13.8-2.1,19-5,7.9-11.4,5.8-25.2,15.7-3.5,2.5-9.1,6.6-14.7,13.5-6.3,7.7-6.5,11.4-13.5,18.3-4.6,4.5-8.6,8.4-14.1,8.3-3.1,0-6.2-2.1-12.4-6.4-7.4-5.1-11.2-7.7-12.6-11.8-.2-.6-2.3-6.9,1-12.2Z"/>
        <path class="cls-1" d="M218.5,421.8c-7.2-4.4-6.1-17.1-5.6-23.1,1.5-17.3,10.6-29.4,14.8-34.8,12-15.5,26.5-22.3,30.3-24,8.5-3.8,25.2-9.3,45.3-5.3,4.6.9,20,4.5,33.5,16.2,5.7,4.9,5.9,6.8,15.1,15.2,11.9,10.8,14.8,10.6,20,16.7,9.8,11.4,11.1,25.3,11.5,30.2,1.5,16.3-4.3,28.4-10.6,41.4-7.7,16-17,26.1-21.7,31-5,5.3-10.3,10.8-19,15.8-12,6.9-21.6,7.7-24.6,7.8-5.8.3-13,.6-17.4-4.3-.4-.5-4.1-4.7-3.3-9.9.9-5.6,6.3-7.7,17.1-15.4,0,0,6.7-4.8,14-11,8.8-7.5,17.4-14.9,23.2-27,2-4.2,5.2-11.1,5.3-20.7,0-1.7,0-9.7-4.1-19.1-4-9.1-9.7-14.4-16.9-21.1-5.7-5.2-11.6-10.8-21.3-15.3-7-3.2-14.8-6.8-25.1-5.7-2.8.3-16.5,1.8-23.1,11.8-3.6,5.4-.8,6.8-5.2,23.4-2.7,10-5.1,14.9-8.3,18.9-2.1,2.6-4.7,5.9-9.5,7.9-1.2.5-8.9,3.5-14.3.2Z"/>
      </g>
      <text>
        <textPath startOffset="186.7%" xlink:href="#path"><tspan class="cls-2"><tspan x="0" y="0">By Blendstrup</tspan></tspan>
        </textPath></text>
    </g>
  </g>
</svg>